<svg width="257" height="97" viewBox="0 0 257 97" fill="none" xmlns="http://www.w3.org/2000/svg">
<path d="M80.4843 25.8989L78.6596 20.7492C74.7861 9.81723 62.7838 4.0952 51.8518 7.96874L21.0429 18.8853C10.1109 22.7588 4.3889 34.7611 8.26244 45.6931L19.179 76.502C23.0525 87.434 35.0548 93.156 45.9868 89.2825L69.9101 80.8057" stroke="#981EF8" stroke-width="13" stroke-linecap="round"/>
<rect x="2.16016" y="26.4155" width="73.7903" height="73.7903" rx="17" transform="rotate(-19.8076 2.16016 26.4155)" fill="url(#paint0_radial_177_12)"/>
<path d="M55.7624 40.7562C55.626 39.3812 55.0408 38.313 54.0067 37.5516C52.9726 36.7903 51.5692 36.4096 49.7965 36.4096C48.5919 36.4096 47.5749 36.58 46.7453 36.9209C45.9158 37.2505 45.2794 37.7107 44.8362 38.3016C44.4044 38.8925 44.1885 39.563 44.1885 40.313C44.1658 40.938 44.2965 41.4834 44.5805 41.9494C44.876 42.4153 45.2794 42.8187 45.7908 43.1596C46.3021 43.4891 46.893 43.7789 47.5635 44.0289C48.234 44.2675 48.9499 44.4721 49.7112 44.6425L52.8476 45.3925C54.3703 45.7334 55.768 46.188 57.0408 46.7562C58.3135 47.3244 59.4158 48.0232 60.3476 48.8528C61.2794 49.6823 62.001 50.6596 62.5124 51.7846C63.0351 52.9096 63.3021 54.1994 63.3135 55.6539C63.3021 57.7903 62.7567 59.6425 61.6771 61.2107C60.609 62.7675 59.0635 63.9778 57.0408 64.8414C55.0294 65.6937 52.6033 66.1198 49.7624 66.1198C46.9442 66.1198 44.4896 65.688 42.3987 64.8244C40.3192 63.9607 38.6942 62.6823 37.5237 60.9891C36.3646 59.2846 35.7567 57.1766 35.6999 54.6653H42.8419C42.9215 55.8357 43.2567 56.813 43.8476 57.5971C44.4499 58.3698 45.251 58.955 46.251 59.3528C47.2624 59.7391 48.4044 59.9323 49.6771 59.9323C50.9271 59.9323 52.0124 59.7505 52.9328 59.3869C53.8646 59.0232 54.5862 58.5175 55.0976 57.8698C55.609 57.2221 55.8646 56.4778 55.8646 55.6369C55.8646 54.8528 55.6317 54.1937 55.1658 53.6596C54.7112 53.1255 54.0408 52.6709 53.1544 52.2959C52.2794 51.9209 51.2055 51.58 49.9328 51.2732L46.1317 50.3187C43.1885 49.6028 40.8646 48.4834 39.1601 46.9607C37.4555 45.438 36.609 43.3869 36.6203 40.8073C36.609 38.6937 37.1715 36.8471 38.3078 35.2675C39.4555 33.688 41.0294 32.455 43.0294 31.5687C45.0294 30.6823 47.3021 30.2391 49.8476 30.2391C52.4385 30.2391 54.6999 30.6823 56.6317 31.5687C58.5749 32.455 60.0862 33.688 61.1658 35.2675C62.2453 36.8471 62.8021 38.6766 62.8362 40.7562H55.7624ZM75.6075 66.1198C73.9371 66.1198 72.4484 65.83 71.1416 65.2505C69.8348 64.6596 68.8007 63.7903 68.0394 62.6425C67.2894 61.4834 66.9144 60.0403 66.9144 58.313C66.9144 56.8584 67.1814 55.6369 67.7155 54.6482C68.2496 53.6596 68.9769 52.8641 69.8973 52.2619C70.8178 51.6596 71.8632 51.205 73.0337 50.8982C74.2155 50.5914 75.4541 50.3755 76.7496 50.2505C78.2723 50.0914 79.4996 49.9437 80.4314 49.8073C81.3632 49.6596 82.0394 49.4437 82.4598 49.1596C82.8803 48.8755 83.0905 48.455 83.0905 47.8982V47.7959C83.0905 46.7164 82.7496 45.8812 82.0678 45.2903C81.3973 44.6994 80.4428 44.4039 79.2041 44.4039C77.8973 44.4039 76.8575 44.6937 76.0848 45.2732C75.3121 45.8414 74.8007 46.5573 74.5507 47.4209L67.8348 46.8755C68.1757 45.2846 68.8462 43.9096 69.8462 42.7505C70.8462 41.58 72.1359 40.6823 73.7155 40.0573C75.3064 39.4209 77.1473 39.1028 79.2382 39.1028C80.6928 39.1028 82.0848 39.2732 83.4144 39.6141C84.7553 39.955 85.9428 40.4834 86.9769 41.1994C88.0223 41.9153 88.8462 42.8357 89.4484 43.9607C90.0507 45.0744 90.3519 46.4096 90.3519 47.9664V65.6255H83.4655V61.9948H83.2609C82.8405 62.813 82.278 63.5346 81.5734 64.1596C80.8689 64.7732 80.0223 65.2562 79.0337 65.6084C78.045 65.9494 76.903 66.1198 75.6075 66.1198ZM77.6871 61.1084C78.7553 61.1084 79.6984 60.8982 80.5166 60.4778C81.3348 60.0459 81.9769 59.4664 82.4428 58.7391C82.9087 58.0119 83.1416 57.188 83.1416 56.2675V53.4891C82.9144 53.6369 82.6019 53.7732 82.2041 53.8982C81.8178 54.0119 81.3803 54.1198 80.8916 54.2221C80.403 54.313 79.9144 54.3982 79.4257 54.4778C78.9371 54.5459 78.4939 54.6084 78.0962 54.6653C77.2439 54.7903 76.4996 54.9891 75.8632 55.2619C75.2269 55.5346 74.7325 55.9039 74.3803 56.3698C74.028 56.8244 73.8519 57.3925 73.8519 58.0744C73.8519 59.063 74.2098 59.8187 74.9257 60.3414C75.653 60.8528 76.5734 61.1084 77.6871 61.1084ZM110.065 39.4437V44.8982H93.9058V39.4437H110.065ZM97.6047 65.6255V37.5516C97.6047 35.6539 97.974 34.08 98.7126 32.83C99.4626 31.58 100.485 30.6425 101.781 30.0175C103.076 29.3925 104.548 29.08 106.196 29.08C107.309 29.08 108.326 29.1653 109.247 29.3357C110.179 29.5062 110.872 29.6596 111.326 29.7959L110.031 35.2505C109.747 35.1596 109.394 35.0744 108.974 34.9948C108.565 34.9153 108.144 34.8755 107.713 34.8755C106.644 34.8755 105.9 35.1255 105.48 35.6255C105.059 36.1141 104.849 36.8016 104.849 37.688V65.6255H97.6047ZM125.495 66.1369C122.802 66.1369 120.484 65.5914 118.541 64.5005C116.609 63.3982 115.12 61.8414 114.075 59.83C113.029 57.8073 112.507 55.4153 112.507 52.6539C112.507 49.9607 113.029 47.5971 114.075 45.563C115.12 43.5289 116.592 41.9437 118.49 40.8073C120.399 39.6709 122.637 39.1028 125.206 39.1028C126.933 39.1028 128.541 39.3812 130.029 39.938C131.529 40.4834 132.836 41.3073 133.95 42.4096C135.075 43.5119 135.95 44.8982 136.575 46.5687C137.2 48.2278 137.512 50.1709 137.512 52.3982V54.3925H115.404V49.8925H130.677C130.677 48.8471 130.45 47.9209 129.995 47.1141C129.541 46.3073 128.91 45.6766 128.103 45.2221C127.308 44.7562 126.382 44.5232 125.325 44.5232C124.223 44.5232 123.245 44.7789 122.393 45.2903C121.552 45.7903 120.893 46.4664 120.416 47.3187C119.938 48.1596 119.694 49.0971 119.683 50.1312V54.4096C119.683 55.705 119.921 56.8244 120.399 57.7675C120.887 58.7107 121.575 59.438 122.461 59.9494C123.348 60.4607 124.399 60.7164 125.615 60.7164C126.421 60.7164 127.16 60.6028 127.831 60.3755C128.501 60.1482 129.075 59.8073 129.552 59.3528C130.029 58.8982 130.393 58.3414 130.643 57.6823L137.359 58.1255C137.018 59.7391 136.319 61.1482 135.262 62.3528C134.217 63.5459 132.865 64.4778 131.206 65.1482C129.558 65.8073 127.654 66.1369 125.495 66.1369ZM142.387 65.6255V30.7164H156.365C158.933 30.7164 161.075 31.0971 162.791 31.8584C164.507 32.6198 165.796 33.6766 166.66 35.0289C167.524 36.3698 167.956 37.9153 167.956 39.6653C167.956 41.0289 167.683 42.2278 167.137 43.2619C166.592 44.2846 165.842 45.1255 164.887 45.7846C163.944 46.4323 162.865 46.8925 161.649 47.1653V47.5062C162.978 47.563 164.223 47.938 165.382 48.6312C166.552 49.3244 167.501 50.2959 168.228 51.5459C168.956 52.7846 169.319 54.2619 169.319 55.9778C169.319 57.83 168.859 59.4834 167.938 60.938C167.029 62.3812 165.683 63.5232 163.899 64.3641C162.115 65.205 159.916 65.6255 157.302 65.6255H142.387ZM149.768 59.5914H155.785C157.842 59.5914 159.342 59.1994 160.285 58.4153C161.228 57.6198 161.7 56.563 161.7 55.2448C161.7 54.2789 161.467 53.4266 161.001 52.688C160.535 51.9494 159.87 51.3698 159.007 50.9494C158.154 50.5289 157.137 50.3187 155.956 50.3187H149.768V59.5914ZM149.768 45.3244H155.24C156.251 45.3244 157.149 45.1482 157.933 44.7959C158.728 44.4323 159.353 43.9209 159.808 43.2619C160.274 42.6028 160.507 41.813 160.507 40.8925C160.507 39.6312 160.058 38.6141 159.16 37.8414C158.274 37.0687 157.012 36.6823 155.376 36.6823H149.768V45.3244ZM190.775 54.4778V39.4437H198.037V65.6255H191.065V60.8698H190.792C190.201 62.4039 189.218 63.6369 187.843 64.5687C186.48 65.5005 184.815 65.9664 182.849 65.9664C181.099 65.9664 179.559 65.5687 178.23 64.7732C176.9 63.9778 175.86 62.8471 175.11 61.3812C174.372 59.9153 173.997 58.1596 173.985 56.1141V39.4437H181.247V54.8187C181.258 56.3641 181.673 57.5857 182.491 58.4834C183.309 59.3812 184.406 59.83 185.781 59.83C186.656 59.83 187.474 59.6312 188.235 59.2334C188.997 58.8244 189.61 58.2221 190.076 57.4266C190.554 56.6312 190.787 55.6482 190.775 54.4778ZM208.328 75.4437C207.407 75.4437 206.544 75.3698 205.737 75.2221C204.941 75.0857 204.282 74.9096 203.76 74.6937L205.396 69.2732C206.248 69.5346 207.015 69.6766 207.697 69.6994C208.39 69.7221 208.987 69.563 209.487 69.2221C209.998 68.8812 210.413 68.3016 210.731 67.4834L211.157 66.3755L201.765 39.4437H209.402L214.822 58.6709H215.095L220.566 39.4437H228.254L218.078 68.455C217.589 69.8641 216.924 71.0914 216.083 72.1369C215.254 73.1937 214.203 74.0062 212.93 74.5744C211.657 75.1539 210.123 75.4437 208.328 75.4437ZM253.754 46.9096L247.106 47.3187C246.992 46.7505 246.748 46.2391 246.373 45.7846C245.998 45.3187 245.504 44.9494 244.89 44.6766C244.288 44.3925 243.566 44.2505 242.725 44.2505C241.6 44.2505 240.652 44.4891 239.879 44.9664C239.106 45.4323 238.72 46.0573 238.72 46.8414C238.72 47.4664 238.97 47.9948 239.47 48.4266C239.97 48.8584 240.828 49.205 242.044 49.4664L246.782 50.4209C249.328 50.9437 251.225 51.7846 252.475 52.9437C253.725 54.1028 254.35 55.6255 254.35 57.5119C254.35 59.2278 253.845 60.7334 252.833 62.0289C251.833 63.3244 250.458 64.3357 248.708 65.063C246.97 65.7789 244.964 66.1369 242.691 66.1369C239.225 66.1369 236.464 65.4153 234.407 63.9721C232.362 62.5175 231.163 60.5403 230.811 58.0403L237.953 57.6653C238.169 58.7221 238.691 59.5289 239.521 60.0857C240.35 60.6312 241.413 60.9039 242.708 60.9039C243.981 60.9039 245.004 60.6596 245.777 60.1709C246.561 59.6709 246.958 59.0289 246.97 58.2448C246.958 57.5857 246.68 57.0459 246.135 56.6255C245.589 56.1937 244.748 55.8641 243.612 55.6369L239.078 54.7334C236.521 54.2221 234.617 53.3357 233.367 52.0744C232.129 50.813 231.51 49.205 231.51 47.2505C231.51 45.5687 231.964 44.1198 232.873 42.9039C233.794 41.688 235.083 40.7505 236.742 40.0914C238.413 39.4323 240.367 39.1028 242.606 39.1028C245.913 39.1028 248.515 39.8016 250.413 41.1994C252.322 42.5971 253.436 44.5005 253.754 46.9096Z" fill="#981EF8"/>
<defs>
<radialGradient id="paint0_radial_177_12" cx="0" cy="0" r="1" gradientUnits="userSpaceOnUse" gradientTransform="translate(2.54473 25.3478) rotate(43.4209) scale(87.9837)">
<stop stop-color="#F0DDFF"/>
<stop offset="1" stop-color="white" stop-opacity="0"/>
</radialGradient>
</defs>
</svg>
